<?xml version="1.0" encoding="UTF-8" standalone="no"?>
<!-- Created with Inkscape (http://www.inkscape.org/) -->

<svg
   width="600mm"
   height="100mm"
   version="1.1"
   viewBox="0 0 755.90549 125.98425"
   id="svg75"
   sodipodi:docname="line.svg"
   inkscape:version="1.2.1 (9c6d41e410, 2022-07-14)"
   xmlns:inkscape="http://www.inkscape.org/namespaces/inkscape"
   xmlns:sodipodi="http://sodipodi.sourceforge.net/DTD/sodipodi-0.dtd"
   xmlns="http://www.w3.org/2000/svg"
   xmlns:svg="http://www.w3.org/2000/svg"
   xmlns:rdf="http://www.w3.org/1999/02/22-rdf-syntax-ns#"
   xmlns:cc="http://creativecommons.org/ns#"
   xmlns:dc="http://purl.org/dc/elements/1.1/">
  <sodipodi:namedview
     id="namedview77"
     pagecolor="#505050"
     bordercolor="#eeeeee"
     borderopacity="1"
     inkscape:showpageshadow="0"
     inkscape:pageopacity="0"
     inkscape:pagecheckerboard="0"
     inkscape:deskcolor="#505050"
     inkscape:document-units="mm"
     showgrid="false"
     inkscape:zoom="0.52607986"
     inkscape:cx="1231.7522"
     inkscape:cy="638.6863"
     inkscape:window-width="1920"
     inkscape:window-height="1057"
     inkscape:window-x="1912"
     inkscape:window-y="-8"
     inkscape:window-maximized="1"
     inkscape:current-layer="layer1"
     showguides="true">
    <sodipodi:guide
       position="378.14164,6.8069064"
       orientation="1,0"
       id="guide975"
       inkscape:locked="false" />
    <sodipodi:guide
       position="70.331525,94.303382"
       orientation="0,-1"
       id="guide2329"
       inkscape:locked="false" />
  </sodipodi:namedview>
  <title
     id="title2">Midnight</title>
  <defs
     id="defs35">
    <filter
       id="filter1744"
       x="-0.048000038"
       y="-0.048000038"
       width="1.0960001"
       height="1.0960001"
       color-interpolation-filters="sRGB">
      <feGaussianBlur
         stdDeviation="4.5354333"
         id="feGaussianBlur4" />
    </filter>
    <filter
       id="filter1748"
       x="-0.047867242"
       y="-0.047891818"
       width="1.0957345"
       height="1.0957836"
       color-interpolation-filters="sRGB">
      <feGaussianBlur
         stdDeviation="4.9681394"
         id="feGaussianBlur7" />
    </filter>
    <filter
       id="filter1752"
       x="-0.039020021"
       y="-0.038740363"
       width="1.07804"
       height="1.0774807"
       color-interpolation-filters="sRGB">
      <feGaussianBlur
         stdDeviation="4.0307096"
         id="feGaussianBlur10" />
    </filter>
    <filter
       id="filter1756"
       x="-0.047952846"
       y="-0.048047196"
       width="1.0959057"
       height="1.0960944"
       color-interpolation-filters="sRGB">
      <feGaussianBlur
         stdDeviation="4.5904335"
         id="feGaussianBlur13" />
    </filter>
    <filter
       id="filter1874"
       x="-0.027000001"
       y="-0.026999999"
       width="1.054"
       height="1.054"
       color-interpolation-filters="sRGB">
      <feGaussianBlur
         stdDeviation="2.4094482"
         id="feGaussianBlur16" />
    </filter>
    <filter
       id="filter1917"
       x="-0.026999978"
       y="-0.026999978"
       width="1.054"
       height="1.054"
       color-interpolation-filters="sRGB">
      <feGaussianBlur
         stdDeviation="2.4094418"
         id="feGaussianBlur19" />
    </filter>
    <filter
       id="filter3253"
       x="-0.013628146"
       y="-1.5800246"
       width="1.0272563"
       height="4.160049"
       color-interpolation-filters="sRGB">
      <feGaussianBlur
         stdDeviation="2.0703875"
         id="feGaussianBlur22" />
    </filter>
    <filter
       id="filter3257"
       x="-0.0176186"
       y="-0.12269772"
       width="1.0352372"
       height="1.2453954"
       color-interpolation-filters="sRGB">
      <feGaussianBlur
         stdDeviation="3.8241855"
         id="feGaussianBlur25" />
    </filter>
    <linearGradient
       id="linearGradient986"
       x1="-136.05083"
       x2="89.687279"
       y1="188.68207"
       y2="188.68207"
       gradientUnits="userSpaceOnUse"
       spreadMethod="reflect">
      <stop
         stop-color="#fff"
         stop-opacity=".69999999"
         offset="0"
         id="stop28" />
      <stop
         stop-color="#fff"
         stop-opacity=".34901961"
         offset=".17684887"
         id="stop30" />
      <stop
         stop-opacity=".3018868"
         offset="1"
         id="stop32" />
    </linearGradient>
    <filter
       id="filter3257-4"
       x="-0.0176186"
       y="-0.12269772"
       width="1.0352372"
       height="1.2453954"
       color-interpolation-filters="sRGB">
      <feGaussianBlur
         stdDeviation="3.8241855"
         id="feGaussianBlur25-1" />
    </filter>
    <filter
       id="filter3253-8"
       x="-0.013628146"
       y="-1.5800246"
       width="1.0272563"
       height="4.1600491"
       color-interpolation-filters="sRGB">
      <feGaussianBlur
         stdDeviation="2.0703875"
         id="feGaussianBlur22-1" />
    </filter>
    <filter
       style="color-interpolation-filters:sRGB"
       inkscape:label="Apparition"
       id="filter571"
       x="-0.42313491"
       y="-0.54373366"
       width="1.8462698"
       height="2.0874673"
       inkscape:menu="Blurs"
       inkscape:menu-tooltip="Edges are partly feathered out">
      <feGaussianBlur
         stdDeviation="25"
         result="blur"
         id="feGaussianBlur563" />
      <feComposite
         in="SourceGraphic"
         in2="blur"
         operator="atop"
         result="composite1"
         id="feComposite565" />
      <feComposite
         in2="composite1"
         operator="in"
         result="composite2"
         id="feComposite567" />
      <feComposite
         in2="composite2"
         operator="in"
         result="fbSourceGraphic"
         id="feComposite569" />
      <feColorMatrix
         result="fbSourceGraphicAlpha"
         in="fbSourceGraphic"
         values="0 0 0 -1 0 0 0 0 -1 0 0 0 0 -1 0 0 0 0 1 0"
         id="feColorMatrix597" />
      <feGaussianBlur
         id="feGaussianBlur599"
         stdDeviation="30 2.2"
         result="fbSourceGraphic"
         in="fbSourceGraphic" />
      <feColorMatrix
         result="fbSourceGraphicAlpha"
         in="fbSourceGraphic"
         values="0 0 0 -1 0 0 0 0 -1 0 0 0 0 -1 0 0 0 0 1 0"
         id="feColorMatrix601" />
      <feGaussianBlur
         id="feGaussianBlur603"
         stdDeviation="30 10"
         result="fbSourceGraphic"
         in="fbSourceGraphic" />
      <feColorMatrix
         result="fbSourceGraphicAlpha"
         in="fbSourceGraphic"
         values="0 0 0 -1 0 0 0 0 -1 0 0 0 0 -1 0 0 0 0 1 0"
         id="feColorMatrix605" />
      <feMorphology
         id="feMorphology607"
         radius="4"
         in="fbSourceGraphic"
         result="result0" />
      <feGaussianBlur
         id="feGaussianBlur609"
         in="result0"
         stdDeviation="8"
         result="result91" />
      <feComposite
         in2="result91"
         id="feComposite611"
         operator="in"
         in="fbSourceGraphic" />
    </filter>
  </defs>
  <metadata
     id="metadata73">
    <rdf:RDF>
      <cc:Work
         rdf:about="">
        <dc:title>Midnight</dc:title>
      </cc:Work>
    </rdf:RDF>
  </metadata>
  <g
     inkscape:groupmode="layer"
     id="layer1"
     inkscape:label="Layer 1"
     transform="translate(18.864966,-173.53379)">
    <rect
       style="fill:#aa0000;stroke-width:3.73864;stroke-linecap:round;stroke-linejoin:round;paint-order:stroke fill markers;filter:url(#filter571)"
       id="rect456"
       width="527.49133"
       height="199.50945"
       x="5317.4033"
       y="5111.8315"
       ry="0"
       transform="matrix(0.9757255,0.00188233,-0.97498742,0.04123343,-5.810769,-11.234529)" />
    <path
       transform="matrix(1,0,0,0.38060653,-53.648271,163.60997)"
       d="m 242.89715,133.47955 c 0.33833,-0.0416 0.59513,-0.0895 1.01553,-0.12453 0.42204,-0.0352 1.888,-0.0654 2.35439,-0.0895 2.99649,-0.15469 5.29957,-0.37119 8.42338,-0.51495 0.81823,-0.0376 1.90359,-0.0502 2.68986,-0.0908 0.34458,-0.0178 0.29633,-0.0685 0.67703,-0.083 0.42562,-0.0162 1.20214,0.005 1.67735,-0.006 1.12627,-0.0268 1.87234,-0.10478 3.02836,-0.1323 0.38018,-0.009 0.99045,0.007 1.34189,-0.005 1.87793,-0.0634 0.84584,-0.12384 3.03142,-0.17252 0.76953,-0.0171 1.84636,-4.1e-4 2.68377,-0.0103 1.15055,-0.0136 3.24111,-0.0749 4.3672,-0.0973 0.15003,-0.003 5.4332,-0.0912 5.70911,-0.10244 0.71336,-0.0289 0.98922,-0.0967 1.68651,-0.12711 1.48924,-0.065 3.46094,-0.0836 5.04123,-0.14006 1.59663,-0.0571 2.91617,-0.14142 4.70877,-0.17899 0.68068,-0.0142 1.62254,4e-4 2.3483,-0.009 6.97331,-0.0911 -1.22353,-0.003 3.02532,-0.0921 1.71866,-0.036 4.17219,-0.004 6.03847,-0.0233 5.40548,-0.0568 10.91347,-0.099 16.77639,-0.10496 10.28923,-0.0103 21.84795,0.15205 32.51627,0.19617 3.59338,0.0148 2.64141,0.0478 6.36785,0.0558 7.39956,0.0158 14.07087,-0.0584 21.46727,-0.0426 1.18064,0.003 2.45822,0.0174 3.6873,0.026 1.45276,0.008 2.94979,0.0212 4.35827,0.0234 2.55997,0.004 4.73989,-0.0426 7.38035,-0.0284 8.18928,0.044 15.95214,0.0277 23.80929,0.0288 9.47158,7.1e-4 1.34318,0.0317 10.05803,0.0417 3.94881,0.005 7.61622,-0.0294 11.40601,-0.044 4.25329,-0.0164 8.66427,-0.015 12.41526,-0.0881 5.03676,-0.0981 10.43926,-0.15956 15.44691,-0.26061 1.19031,-0.024 2.09991,-0.0769 3.3608,-0.0934 1.6581,-0.0217 3.67658,-0.003 5.36753,-0.0207 2.22936,-0.0239 4.15443,-0.0808 6.38004,-0.10503 3.66423,-0.04 7.85022,-0.0303 11.74146,-0.0453 3.89227,-0.015 7.65459,-0.056 11.74148,-0.0453 1.90215,0.005 4.08712,0.0467 6.03237,0.0572 4.47028,0.024 8.79926,0.0299 13.07726,0.0299 1.50071,0 2.78805,-0.0258 4.36112,-0.0169 1.23385,0.007 2.74781,0.0529 4.01954,0.0649 2.20086,0.0209 3.76645,-0.0534 6.03848,-0.0233 2.89885,0.0385 5.03532,0.003 7.71254,0.0105 8.29968,0.0233 17.40009,0.13797 26.14233,0.22076 0.99771,0.009 1.6729,-0.0216 2.68376,-0.0103 3.31096,0.0369 6.44675,0.0544 9.71953,0.0831 0.33742,0.003 5.38131,0.0323 6.36785,0.0558 0.50088,0.0119 1.1485,0.058 1.67126,0.074 1.85344,0.0565 3.63298,0.0371 6.0171,0.25821 1.32307,0.12267 3.09873,0.34726 3.98908,0.46706 1.22387,0.16465 1.25827,0.25033 1.98231,0.39438 0.12264,0.0244 0.66628,0.0589 0.66485,0.0778 -0.003,0.03 -0.54069,0.0213 -0.6738,0.0428 -0.2104,0.0341 -0.13407,0.0879 -0.34462,0.12195 -0.71895,0.11627 -6.13974,0.0639 -8.05417,0.0713 -4.75211,0.0183 -9.53983,0.019 -14.7546,-0.0235 -1.77193,-0.0144 -3.44592,0.0133 -5.03206,0.0194 -4.36112,0.0169 -8.72223,0.0337 -13.08336,0.0505 -8.40531,0.0324 -7.95851,0.0527 -17.77385,-0.0118 -1.72282,-0.0113 -3.66447,-0.0518 -5.36143,-0.0597 -1.4399,-0.007 -2.55799,0.0259 -4.02564,0.0155 -1.00853,-0.007 -2.30654,-0.0559 -3.34862,-0.0675 -2.11346,-0.0235 -4.03337,-0.009 -6.03561,-0.0169 -4.15335,-0.0172 -8.67998,-0.0614 -13.07111,-0.11038 -2.57736,-0.0287 -5.44834,-0.0992 -8.03912,-0.1298 -2.55326,-0.0301 -4.71607,-0.007 -7.37425,-0.052 -1.13001,-0.0192 -2.52454,-0.0831 -3.68105,-0.10641 -1.09131,-0.022 -1.95674,-0.0114 -3.01638,-0.0286 -5.63013,-0.0909 -11.56666,-0.21114 -17.414,-0.33485 -3.73252,-0.079 -7.85455,-0.1906 -11.38465,-0.23749 -1.29176,-0.0172 -2.38679,-0.008 -3.68732,-0.026 -2.58164,-0.0365 -5.73992,-0.1599 -8.36847,-0.20893 -5.75724,-0.10737 -11.08372,-0.12968 -16.08735,-0.13894 -2.85194,-0.006 -6.08903,-0.0649 -9.04853,-0.0857 -1.6959,-0.0119 -3.05969,0.0228 -4.69658,0.0181 -4.97009,-0.0139 -10.10821,-0.0465 -15.08706,-0.0624 -1.79343,-0.006 -3.8969,-0.0519 -5.69691,-0.0584 -6.43035,-0.0234 -13.04762,-0.0678 -19.44511,-0.0858 -3.28771,-0.009 -6.28021,0.0242 -9.39318,0.0362 -2.99906,0.0116 -6.25209,0.001 -9.05771,0.035 -2.8381,0.0336 -5.29219,0.10946 -8.06041,0.15172 -0.91629,0.014 -2.07296,7e-4 -3.01924,0.0116 -2.43217,0.0276 -4.34388,0.11368 -6.71857,0.14654 -1.23594,0.0171 -2.85916,-0.009 -4.02564,0.0155 -3.1849,0.0668 -6.41356,0.14617 -9.40844,0.23732 -5.98453,0.18215 -10.3212,0.50881 -16.15135,0.70558 -2.03366,0.0686 -3.90285,0.16929 -6.05372,0.22438 -0.56201,0.0144 -1.54031,-0.0152 -2.01282,0.008 -0.45896,0.0223 -0.34664,0.0902 -0.68007,0.12324 -0.79648,0.0789 -1.73495,0.14639 -2.69903,0.21143 -2.89022,0.19499 -2.20548,0.0887 -6.05676,0.26459 -1.09397,0.05 -1.95458,0.12097 -3.03142,0.17251 -7.19472,0.34437 0.26233,-0.0484 -6.3892,0.22567 -0.86785,0.0358 -1.42701,0.0999 -2.35742,0.12971 -2.95502,0.0945 -14.02567,0.2513 -19.13098,0.19443 -2.61456,-0.0291 -0.18686,-0.028 -2.34221,-0.0714 -0.96828,-0.0195 -1.73337,-0.0145 -2.68048,-0.0299 -1.38085,-0.0223 -3.2212,-0.11911 -4.68438,-0.14274 -1.98247,-0.0319 -3.96914,-0.0641 -6.02932,-0.0973 -1.14608,-0.0185 -2.50061,-0.0826 -3.68106,-0.10641 -0.31958,-0.006 -0.99344,0.0248 -1.34188,0.005 -0.15739,-0.009 -0.1748,-0.03 -0.33261,-0.039 -0.47251,-0.0266 -0.60056,0.012 -1.00641,0.004 -1.0913,-0.022 -2.44531,-0.0958 -3.67799,-0.14662 z"
       fill="#ffffff"
       filter="url(#filter3253)"
       stroke-width="0.181991"
       style="display:inline;mix-blend-mode:normal;filter:url(#filter3253-8)"
       id="path39" />
  </g>
</svg>
