<?xml version="1.0" encoding="UTF-8" standalone="no"?>
<!-- Created with Inkscape (http://www.inkscape.org/) -->

<svg
   width="375mm"
   height="300mm"
   viewBox="0 0 472.44094 377.95275"
   version="1.1"
   id="svg5"
   inkscape:version="1.2.1 (9c6d41e410, 2022-07-14)"
   sodipodi:docname="logo.svg"
   xmlns:inkscape="http://www.inkscape.org/namespaces/inkscape"
   xmlns:sodipodi="http://sodipodi.sourceforge.net/DTD/sodipodi-0.dtd"
   xmlns:xlink="http://www.w3.org/1999/xlink"
   xmlns="http://www.w3.org/2000/svg"
   xmlns:svg="http://www.w3.org/2000/svg"
   xmlns:rdf="http://www.w3.org/1999/02/22-rdf-syntax-ns#"
   xmlns:cc="http://creativecommons.org/ns#"
   xmlns:dc="http://purl.org/dc/elements/1.1/">
  <title
     id="title1835">Midnight</title>
  <sodipodi:namedview
     id="namedview7"
     pagecolor="#505050"
     bordercolor="#eeeeee"
     borderopacity="1"
     inkscape:showpageshadow="0"
     inkscape:pageopacity="0"
     inkscape:pagecheckerboard="0"
     inkscape:deskcolor="#505050"
     inkscape:document-units="mm"
     showgrid="false"
     showguides="true"
     inkscape:zoom="0.50000001"
     inkscape:cx="713.99998"
     inkscape:cy="457.99999"
     inkscape:window-width="1920"
     inkscape:window-height="1057"
     inkscape:window-x="1912"
     inkscape:window-y="-8"
     inkscape:window-maximized="1"
     inkscape:current-layer="layer1">
    <sodipodi:guide
       position="50.675983,188.91954"
       orientation="0,-1"
       id="guide271"
       inkscape:locked="false" />
    <sodipodi:guide
       position="236.49998,261.61942"
       orientation="1,0"
       id="guide273"
       inkscape:locked="false" />
  </sodipodi:namedview>
  <defs
     id="defs2">
    <rect
       x="728"
       y="420"
       width="1472"
       height="348"
       id="rect2031" />
    <rect
       x="776"
       y="456"
       width="1464"
       height="364"
       id="rect2025" />
    <linearGradient
       inkscape:collect="always"
       id="linearGradient982">
      <stop
         style="stop-color:#ffffff;stop-opacity:0.69999999;"
         offset="0"
         id="stop978" />
      <stop
         style="stop-color:#ffffff;stop-opacity:0.34901961;"
         offset="0.17684887"
         id="stop1057" />
      <stop
         style="stop-color:#000000;stop-opacity:0.3018868;"
         offset="1"
         id="stop980" />
    </linearGradient>
    <filter
       inkscape:collect="always"
       style="color-interpolation-filters:sRGB"
       id="filter1744"
       x="-0.048000038"
       y="-0.048000039"
       width="1.0960001"
       height="1.0960001">
      <feGaussianBlur
         inkscape:collect="always"
         stdDeviation="4.5354333"
         id="feGaussianBlur1746" />
    </filter>
    <filter
       inkscape:collect="always"
       style="color-interpolation-filters:sRGB"
       id="filter1748"
       x="-0.047867243"
       y="-0.047891818"
       width="1.0957345"
       height="1.0957836">
      <feGaussianBlur
         inkscape:collect="always"
         stdDeviation="4.9681394"
         id="feGaussianBlur1750" />
    </filter>
    <filter
       inkscape:collect="always"
       style="color-interpolation-filters:sRGB"
       id="filter1752"
       x="-0.039020019"
       y="-0.038740363"
       width="1.07804"
       height="1.0774807">
      <feGaussianBlur
         inkscape:collect="always"
         stdDeviation="4.0307096"
         id="feGaussianBlur1754" />
    </filter>
    <filter
       inkscape:collect="always"
       style="color-interpolation-filters:sRGB"
       id="filter1756"
       x="-0.047952844"
       y="-0.048047197"
       width="1.0959057"
       height="1.0960944">
      <feGaussianBlur
         inkscape:collect="always"
         stdDeviation="4.5904335"
         id="feGaussianBlur1758" />
    </filter>
    <filter
       inkscape:collect="always"
       style="color-interpolation-filters:sRGB"
       id="filter1874"
       x="-0.027"
       y="-0.026999999"
       width="1.054"
       height="1.054">
      <feGaussianBlur
         inkscape:collect="always"
         stdDeviation="2.4094482"
         id="feGaussianBlur1876" />
    </filter>
    <filter
       inkscape:collect="always"
       style="color-interpolation-filters:sRGB"
       id="filter1917"
       x="-0.026999979"
       y="-0.026999978"
       width="1.054"
       height="1.054">
      <feGaussianBlur
         inkscape:collect="always"
         stdDeviation="2.4094418"
         id="feGaussianBlur1919" />
    </filter>
    <linearGradient
       inkscape:collect="always"
       xlink:href="#linearGradient982"
       id="linearGradient986"
       x1="-136.05083"
       y1="188.68207"
       x2="89.687279"
       y2="188.68207"
       gradientUnits="userSpaceOnUse"
       spreadMethod="reflect" />
    <linearGradient
       inkscape:collect="always"
       xlink:href="#linearGradient982"
       id="linearGradient324"
       gradientUnits="userSpaceOnUse"
       x1="-136.05083"
       y1="188.68207"
       x2="89.687279"
       y2="188.68207"
       spreadMethod="reflect" />
  </defs>
  <g
     inkscape:label="Eclipse"
     inkscape:groupmode="layer"
     id="layer1"
     transform="matrix(0.99642178,0,0,1.0466836,49.566435,-2.1604892)">
    <g
       id="g2873"
       inkscape:label="Eclipse"
       transform="matrix(1.0557347,0,0,1.005025,44.30245,49.979603)">
      <path
         id="path1514"
         style="display:inline;opacity:0.65;fill:#aa0000;stroke-width:0.553528;filter:url(#filter1744)"
         inkscape:label="Glow"
         d="M 134.82161,20.15625 A 113.38583,113.38583 0 0 0 21.436197,133.54166 113.38583,113.38583 0 0 0 134.82161,246.92773 113.38583,113.38583 0 0 0 248.20768,133.54166 113.38583,113.38583 0 0 0 134.82161,20.15625 Z m 0.26498,6.510416 A 107.08661,107.08661 0 0 1 242.17317,133.75325 107.08661,107.08661 0 0 1 135.08659,240.83984 107.08661,107.08661 0 0 1 27.999999,133.75325 107.08661,107.08661 0 0 1 135.08659,26.666666 Z" />
      <path
         id="path1734"
         style="display:inline;opacity:0.5;fill:#aa0000;stroke-width:0.503937;filter:url(#filter1756)"
         inkscape:label="21Point"
         inkscape:transform-center-x="0.095649483"
         inkscape:transform-center-y="-0.5479361"
         d="m 133.54166,17.91927 -2.62369,8.919922 a 107.08661,107.08661 0 0 1 4.16862,-0.172526 107.08661,107.08661 0 0 1 1.24609,0.01758 z m 34.01172,4.740886 -5.02669,7.585286 a 107.08661,107.08661 0 0 1 5.10937,1.494792 z m -67.909502,0.754557 0.121745,9.26888 a 107.08661,107.08661 0 0 1 5.208337,-1.601562 z m 99.012372,13.80013 -6.92448,5.672526 a 107.08661,107.08661 0 0 1 4.37304,2.873047 z M 68.872394,38.6569 l 2.861328,8.861328 a 107.08661,107.08661 0 0 1 4.424479,-3.158854 z m 155.214836,21.634114 -8.09895,3.302084 a 107.08661,107.08661 0 0 1 3.25065,3.949869 z m -180.126945,2.001302 5.291667,7.546875 a 107.08661,107.08661 0 0 1 3.348958,-4.246093 z m 197.626945,27.545573 -8.51106,0.750651 a 107.08661,107.08661 0 0 1 1.91211,4.610677 z m -214.466137,2.382812 7.152995,5.552083 A 107.08661,107.08661 0 0 1 36.20703,92.819008 Z M 241.46744,121.48633 a 107.08661,107.08661 0 0 1 0.4375,4.84505 l 7.69466,-3.10091 z m -212.953769,2.23697 -8.661458,2.0599 8.347005,3.15039 a 107.08661,107.08661 0 0 1 0.314453,-5.21029 z m 211.754549,29.77605 a 107.08661,107.08661 0 0 1 -0.98242,4.68489 l 8.12826,-0.68359 z m -209.932283,2.05403 -7.537109,4.44336 8.623046,0.53255 a 107.08661,107.08661 0 0 1 -1.085937,-4.97591 z M 229.70898,183.8151 a 107.08661,107.08661 0 0 1 -2.33008,4.07357 l 7.8457,1.71614 z m -188.303382,1.74284 -5.70638,6.26367 8.248698,-1.99674 a 107.08661,107.08661 0 0 1 -2.542318,-4.26693 z m 169.168612,24.02213 a 107.08661,107.08661 0 0 1 -3.29687,3.2448 l 6.83594,3.86458 z m -149.634758,1.3405 -3.532552,7.50976 7.111328,-4.23112 a 107.08661,107.08661 0 0 1 -3.578776,-3.27864 z m 123.745438,17.68164 a 107.08661,107.08661 0 0 1 -4.13607,2.02213 l 5.40756,5.72331 z m -97.55273,0.80403 -1.138672,8.05209 5.395833,-5.9707 a 107.08661,107.08661 0 0 1 -4.257161,-2.08139 z m 67.19466,9.63477 a 107.08661,107.08661 0 0 1 -4.56315,0.70573 l 3.49284,7.08724 z m -36.6582,0.36458 1.25,7.8099 3.36784,-7.23438 a 107.08661,107.08661 0 0 1 -4.61784,-0.57552 z" />
      <path
         id="path1736"
         style="opacity:0.5;fill:#aa0000;stroke-width:0.503937;filter:url(#filter1752)"
         inkscape:label="10Point"
         inkscape:transform-center-x="-6.1543026e-06"
         inkscape:transform-center-y="2.5061432e-06"
         d="m 152.12729,8.6888016 -6.98934,17.8275814 a 106.42859,107.19687 0 0 1 9.97026,1.444194 z M 75.516967,22.612628 80.384011,41.308942 A 106.42859,107.19687 0 0 1 89.29765,36.494093 Z M 222.2905,42.455303 205.66671,53.08277 a 106.42859,107.19687 0 0 1 7.40669,7.300478 z M 21.72261,78.907509 37.013487,91.471865 a 106.42859,107.19687 0 0 1 4.427703,-9.367708 z m 217.11597,30.892451 a 106.42859,107.19687 0 0 1 1.80653,10.58641 l 18.56167,-9.37292 z m -209.321065,37.06677 -18.227151,9.20413 20.055042,1.19459 a 106.42859,107.19687 0 0 1 -1.827891,-10.39872 z m 203.379285,28.2628 a 106.42859,107.19687 0 0 1 -4.66841,9.71572 l 20.54615,3.3309 z m -175.425812,31.47834 -9.264335,18.02048 16.809483,-10.74608 a 106.42859,107.19687 0 0 1 -7.545148,-7.2744 z m 132.424102,18.33135 a 106.42859,107.19687 0 0 1 -9.30316,5.03904 l 14.38761,14.49277 z m -74.6045,13.54974 3.07862,19.9059 7.22422,-18.42586 a 106.42859,107.19687 0 0 1 -10.30284,-1.48004 z"
         transform="matrix(1.0061827,0,0,0.99897143,-0.73647175,0.675604)" />
      <path
         id="path1738"
         style="opacity:0.5;fill:#aa0000;fill-opacity:1;stroke-width:0.503937;filter:url(#filter1748)"
         inkscape:label="11Point"
         inkscape:transform-center-x="-0.015990359"
         inkscape:transform-center-y="-2.550911"
         d="m 195.66313,23.069327 -13.5807,14.666878 a 106.8801,106.93528 89.999917 0 1 4.48346,2.235126 106.8801,106.93528 89.999917 0 1 3.98552,2.323472 z m 50.06775,50.430258 -19.19817,4.956336 a 106.8801,106.93528 89.999917 0 1 4.55943,8.402939 z M 126.27841,7.712829 122.77154,27.460961 a 106.8801,106.93528 89.999917 0 1 9.64658,-0.668007 z m 134.30698,135.280251 -18.79358,-6.19754 a 106.8801,106.93528 89.999917 0 1 -0.71574,9.51671 z M 59.606837,32.306369 l 7.733668,18.52743 a 106.8801,106.93528 89.999917 0 1 7.76176,-5.783442 z M 223.00536,194.0541 a 106.8801,106.93528 89.999917 0 1 -5.79296,7.6377 l 18.29917,7.79427 z M 36.719644,91.38259 16.814673,89.041903 33.323491,100.43669 a 106.8801,106.93528 89.999917 0 1 3.396153,-9.0541 z m -7.252254,59.74619 -17.9779,8.7763 20.019555,0.65995 a 106.8801,106.93528 89.999917 0 1 -2.041655,-9.43625 z m 146.8194,80.95203 a 106.8801,106.93528 89.999917 0 1 -9.02714,3.29367 l 11.20943,16.49284 z M 55.679803,205.32952 45.321109,222.39835 62.489197,212.14854 a 106.8801,106.93528 89.999917 0 1 -6.809394,-6.81902 z m 60.763307,33.5004 a 106.8801,106.93528 89.999917 0 1 -9.38788,-2.11468 l 0.51383,19.96567 z"
         transform="matrix(0.87685878,-0.48368469,0.48393445,0.87731156,-47.848861,81.838422)" />
      <path
         id="circle1864"
         style="display:inline;opacity:1;fill:#aa0000;fill-opacity:1;stroke-width:0.537188;filter:url(#filter1874)"
         inkscape:label="InnerRed"
         d="M 135.08659,26.666666 A 107.08661,107.08661 0 0 0 27.999999,133.75325 107.08661,107.08661 0 0 0 135.08659,240.83984 107.08661,107.08661 0 0 0 242.17317,133.75325 107.08661,107.08661 0 0 0 135.08659,26.666666 Z m -0.29883,6 A 100.7874,100.7874 0 0 1 235.57486,133.45442 100.7874,100.7874 0 0 1 134.78776,234.24153 100.7874,100.7874 0 0 1 33.999999,133.45442 100.7874,100.7874 0 0 1 134.78776,32.666666 Z" />
      <path
         id="circle1870"
         style="display:inline;opacity:1;fill:url(#linearGradient324);fill-opacity:1;stroke-width:0.537188;filter:url(#filter1917)"
         inkscape:label="InnerWhite"
         d="M 58.851049,119.84822 A 107.08661,107.08661 0 0 0 -23.181854,81.595682 107.08661,107.08661 0 0 0 -130.26816,188.68214 107.08661,107.08661 0 0 0 -23.181702,295.76845 107.08661,107.08661 0 0 0 83.904606,188.68199 107.08661,107.08661 0 0 0 58.851049,119.84822 Z m -0.002,4.72476 a 103.80207,103.80207 0 0 1 -18.29973,145.65326 103.80207,103.80207 0 0 1 -145.652849,-18.2992 103.80207,103.80207 0 0 1 18.298788,-145.65338 103.80207,103.80207 0 0 1 145.653791,18.29932 z"
         transform="matrix(0.59563045,-0.76680043,0.76680043,0.59563045,4.212869,3.5926712)" />
    </g>
    <g
       id="g1990"
       inkscape:label="Eclipse"
       style="display:none">
      <path
         id="path1978"
         style="display:inline;opacity:0.65;fill:#aa0000;stroke-width:0.553528;filter:url(#filter1744)"
         inkscape:label="Glow"
         d="M 134.82161,20.15625 A 113.38583,113.38583 0 0 0 21.436197,133.54166 113.38583,113.38583 0 0 0 134.82161,246.92773 113.38583,113.38583 0 0 0 248.20768,133.54166 113.38583,113.38583 0 0 0 134.82161,20.15625 Z m 0.26498,6.510416 A 107.08661,107.08661 0 0 1 242.17317,133.75325 107.08661,107.08661 0 0 1 135.08659,240.83984 107.08661,107.08661 0 0 1 27.999999,133.75325 107.08661,107.08661 0 0 1 135.08659,26.666666 Z" />
      <path
         id="path1980"
         style="display:inline;opacity:0.5;fill:#aa0000;stroke-width:0.503937;filter:url(#filter1756)"
         inkscape:label="21Point"
         inkscape:transform-center-x="0.095649483"
         inkscape:transform-center-y="-0.5479361"
         d="m 133.54166,17.91927 -2.62369,8.919922 a 107.08661,107.08661 0 0 1 4.16862,-0.172526 107.08661,107.08661 0 0 1 1.24609,0.01758 z m 34.01172,4.740886 -5.02669,7.585286 a 107.08661,107.08661 0 0 1 5.10937,1.494792 z m -67.909502,0.754557 0.121745,9.26888 a 107.08661,107.08661 0 0 1 5.208337,-1.601562 z m 99.012372,13.80013 -6.92448,5.672526 a 107.08661,107.08661 0 0 1 4.37304,2.873047 z M 68.872394,38.6569 l 2.861328,8.861328 a 107.08661,107.08661 0 0 1 4.424479,-3.158854 z m 155.214836,21.634114 -8.09895,3.302084 a 107.08661,107.08661 0 0 1 3.25065,3.949869 z m -180.126945,2.001302 5.291667,7.546875 a 107.08661,107.08661 0 0 1 3.348958,-4.246093 z m 197.626945,27.545573 -8.51106,0.750651 a 107.08661,107.08661 0 0 1 1.91211,4.610677 z m -214.466137,2.382812 7.152995,5.552083 A 107.08661,107.08661 0 0 1 36.20703,92.819008 Z M 241.46744,121.48633 a 107.08661,107.08661 0 0 1 0.4375,4.84505 l 7.69466,-3.10091 z m -212.953769,2.23697 -8.661458,2.0599 8.347005,3.15039 a 107.08661,107.08661 0 0 1 0.314453,-5.21029 z m 211.754549,29.77605 a 107.08661,107.08661 0 0 1 -0.98242,4.68489 l 8.12826,-0.68359 z m -209.932283,2.05403 -7.537109,4.44336 8.623046,0.53255 a 107.08661,107.08661 0 0 1 -1.085937,-4.97591 z M 229.70898,183.8151 a 107.08661,107.08661 0 0 1 -2.33008,4.07357 l 7.8457,1.71614 z m -188.303382,1.74284 -5.70638,6.26367 8.248698,-1.99674 a 107.08661,107.08661 0 0 1 -2.542318,-4.26693 z m 169.168612,24.02213 a 107.08661,107.08661 0 0 1 -3.29687,3.2448 l 6.83594,3.86458 z m -149.634758,1.3405 -3.532552,7.50976 7.111328,-4.23112 a 107.08661,107.08661 0 0 1 -3.578776,-3.27864 z m 123.745438,17.68164 a 107.08661,107.08661 0 0 1 -4.13607,2.02213 l 5.40756,5.72331 z m -97.55273,0.80403 -1.138672,8.05209 5.395833,-5.9707 a 107.08661,107.08661 0 0 1 -4.257161,-2.08139 z m 67.19466,9.63477 a 107.08661,107.08661 0 0 1 -4.56315,0.70573 l 3.49284,7.08724 z m -36.6582,0.36458 1.25,7.8099 3.36784,-7.23438 a 107.08661,107.08661 0 0 1 -4.61784,-0.57552 z" />
      <path
         id="path1982"
         style="opacity:0.5;fill:#aa0000;stroke-width:0.503937;filter:url(#filter1752)"
         inkscape:label="10Point"
         inkscape:transform-center-x="-6.1543026e-06"
         inkscape:transform-center-y="2.5061432e-06"
         d="m 152.12729,8.6888016 -6.98934,17.8275814 a 106.42859,107.19687 0 0 1 9.97026,1.444194 z M 75.516967,22.612628 80.384011,41.308942 A 106.42859,107.19687 0 0 1 89.29765,36.494093 Z M 222.2905,42.455303 205.66671,53.08277 a 106.42859,107.19687 0 0 1 7.40669,7.300478 z M 21.72261,78.907509 37.013487,91.471865 a 106.42859,107.19687 0 0 1 4.427703,-9.367708 z m 217.11597,30.892451 a 106.42859,107.19687 0 0 1 1.80653,10.58641 l 18.56167,-9.37292 z m -209.321065,37.06677 -18.227151,9.20413 20.055042,1.19459 a 106.42859,107.19687 0 0 1 -1.827891,-10.39872 z m 203.379285,28.2628 a 106.42859,107.19687 0 0 1 -4.66841,9.71572 l 20.54615,3.3309 z m -175.425812,31.47834 -9.264335,18.02048 16.809483,-10.74608 a 106.42859,107.19687 0 0 1 -7.545148,-7.2744 z m 132.424102,18.33135 a 106.42859,107.19687 0 0 1 -9.30316,5.03904 l 14.38761,14.49277 z m -74.6045,13.54974 3.07862,19.9059 7.22422,-18.42586 a 106.42859,107.19687 0 0 1 -10.30284,-1.48004 z"
         transform="matrix(1.0061827,0,0,0.99897143,-0.73647175,0.675604)" />
      <path
         id="path1984"
         style="opacity:0.5;fill:#aa0000;fill-opacity:1;stroke-width:0.503937;filter:url(#filter1748)"
         inkscape:label="11Point"
         inkscape:transform-center-x="-0.015990359"
         inkscape:transform-center-y="-2.550911"
         d="m 195.66313,23.069327 -13.5807,14.666878 a 106.8801,106.93528 89.999917 0 1 4.48346,2.235126 106.8801,106.93528 89.999917 0 1 3.98552,2.323472 z m 50.06775,50.430258 -19.19817,4.956336 a 106.8801,106.93528 89.999917 0 1 4.55943,8.402939 z M 126.27841,7.712829 122.77154,27.460961 a 106.8801,106.93528 89.999917 0 1 9.64658,-0.668007 z m 134.30698,135.280251 -18.79358,-6.19754 a 106.8801,106.93528 89.999917 0 1 -0.71574,9.51671 z M 59.606837,32.306369 l 7.733668,18.52743 a 106.8801,106.93528 89.999917 0 1 7.76176,-5.783442 z M 223.00536,194.0541 a 106.8801,106.93528 89.999917 0 1 -5.79296,7.6377 l 18.29917,7.79427 z M 36.719644,91.38259 16.814673,89.041903 33.323491,100.43669 a 106.8801,106.93528 89.999917 0 1 3.396153,-9.0541 z m -7.252254,59.74619 -17.9779,8.7763 20.019555,0.65995 a 106.8801,106.93528 89.999917 0 1 -2.041655,-9.43625 z m 146.8194,80.95203 a 106.8801,106.93528 89.999917 0 1 -9.02714,3.29367 l 11.20943,16.49284 z M 55.679803,205.32952 45.321109,222.39835 62.489197,212.14854 a 106.8801,106.93528 89.999917 0 1 -6.809394,-6.81902 z m 60.763307,33.5004 a 106.8801,106.93528 89.999917 0 1 -9.38788,-2.11468 l 0.51383,19.96567 z"
         transform="matrix(0.87685878,-0.48368469,0.48393445,0.87731156,-47.848861,81.838422)" />
      <path
         id="path1986"
         style="display:inline;opacity:1;fill:#aa0000;fill-opacity:1;stroke-width:0.537188;filter:url(#filter1874)"
         inkscape:label="InnerRed"
         d="M 135.08659,26.666666 A 107.08661,107.08661 0 0 0 27.999999,133.75325 107.08661,107.08661 0 0 0 135.08659,240.83984 107.08661,107.08661 0 0 0 242.17317,133.75325 107.08661,107.08661 0 0 0 135.08659,26.666666 Z m -0.29883,6 A 100.7874,100.7874 0 0 1 235.57486,133.45442 100.7874,100.7874 0 0 1 134.78776,234.24153 100.7874,100.7874 0 0 1 33.999999,133.45442 100.7874,100.7874 0 0 1 134.78776,32.666666 Z" />
      <path
         id="path1988"
         style="display:inline;opacity:1;fill:url(#linearGradient986);fill-opacity:1;stroke-width:0.537188;filter:url(#filter1917)"
         inkscape:label="InnerWhite"
         d="M 58.851049,119.84822 A 107.08661,107.08661 0 0 0 -23.181854,81.595682 107.08661,107.08661 0 0 0 -130.26816,188.68214 107.08661,107.08661 0 0 0 -23.181702,295.76845 107.08661,107.08661 0 0 0 83.904606,188.68199 107.08661,107.08661 0 0 0 58.851049,119.84822 Z m -0.002,4.72476 a 103.80207,103.80207 0 0 1 -18.29973,145.65326 103.80207,103.80207 0 0 1 -145.652849,-18.2992 103.80207,103.80207 0 0 1 18.298788,-145.65338 103.80207,103.80207 0 0 1 145.653791,18.29932 z"
         transform="matrix(0.59563045,-0.76680043,0.76680043,0.59563045,4.212869,3.5926712)" />
    </g>
  </g>
  <metadata
     id="metadata1833">
    <rdf:RDF>
      <cc:Work
         rdf:about="">
        <dc:title>Midnight</dc:title>
      </cc:Work>
    </rdf:RDF>
  </metadata>
</svg>
